<svg width="48" height="48" viewBox="0 0 48 48" fill="none" xmlns="http://www.w3.org/2000/svg">
<path d="M10 16H38V12H10V16ZM10 44C8.9 44 7.95833 43.6083 7.175 42.825C6.39167 42.0417 6 41.1 6 40V12C6 10.9 6.39167 9.95833 7.175 9.175C7.95833 8.39167 8.9 8 10 8H12V4H16V8H32V4H36V8H38C39.1 8 40.0417 8.39167 40.825 9.175C41.6083 9.95833 42 10.9 42 12V23.35C41.3667 23.05 40.7167 22.8 40.05 22.6C39.3833 22.4 38.7 22.25 38 22.15V20H10V40H22.6C22.8333 40.7333 23.1083 41.4333 23.425 42.1C23.7417 42.7667 24.1167 43.4 24.55 44H10ZM36 46C33.2333 46 30.875 45.025 28.925 43.075C26.975 41.125 26 38.7667 26 36C26 33.2333 26.975 30.875 28.925 28.925C30.875 26.975 33.2333 26 36 26C38.7667 26 41.125 26.975 43.075 28.925C45.025 30.875 46 33.2333 46 36C46 38.7667 45.025 41.125 43.075 43.075C41.125 45.025 38.7667 46 36 46ZM39.35 40.75L40.75 39.35L37 35.6V30H35V36.4L39.35 40.75Z" fill="#F36A0E"/>
</svg>
