<svg width="40" height="40" viewBox="0 0 40 40" fill="none" xmlns="http://www.w3.org/2000/svg">
<path d="M37.25 14.7755L34.45 11.9755L35.95 10.4255L29.55 4.02553L28 5.52553L25.15 2.67553L26.65 1.12553C27.4167 0.358865 28.3667 -0.0161348 29.5 0.000531915C30.6333 0.0171986 31.5833 0.408865 32.35 1.17553L38.8 7.62553C39.5667 8.3922 39.95 9.33386 39.95 10.4505C39.95 11.5672 39.5667 12.5089 38.8 13.2755L37.25 14.7755ZM13.25 38.8255C12.4833 39.5922 11.5417 39.9755 10.425 39.9755C9.30833 39.9755 8.36667 39.5922 7.6 38.8255L1.15 32.3755C0.383333 31.6089 0 30.6672 0 29.5505C0 28.4339 0.383333 27.4922 1.15 26.7255L2.65 25.2255L5.5 28.0755L3.95 29.5755L10.4 36.0255L11.9 34.4755L14.75 37.3255L13.25 38.8255ZM33.1 22.0255L35.95 19.1755L20.8 4.02553L17.95 6.87553L33.1 22.0255ZM19.1 36.0255L21.95 33.1255L6.85 18.0255L3.95 20.8755L19.1 36.0255ZM18.8 24.3255L24.3 18.8755L21.1 15.6755L15.65 21.1755L18.8 24.3255ZM21.95 38.8255C21.1833 39.5922 20.2333 39.9755 19.1 39.9755C17.9667 39.9755 17.0167 39.5922 16.25 38.8255L1.15 23.7255C0.383333 22.9589 0 22.0089 0 20.8755C0 19.7422 0.383333 18.7922 1.15 18.0255L4 15.1755C4.76667 14.4089 5.70833 14.0255 6.825 14.0255C7.94167 14.0255 8.88333 14.4089 9.65 15.1755L12.8 18.3255L18.3 12.8255L15.15 9.72553C14.3833 8.95886 14 8.00886 14 6.87553C14 5.7422 14.3833 4.7922 15.15 4.02553L18 1.17553C18.7667 0.408865 19.7083 0.0255319 20.825 0.0255319C21.9417 0.0255319 22.8833 0.408865 23.65 1.17553L38.8 16.3255C39.5667 17.0922 39.95 18.0339 39.95 19.1505C39.95 20.2672 39.5667 21.2089 38.8 21.9755L35.95 24.8255C35.1833 25.5922 34.2333 25.9755 33.1 25.9755C31.9667 25.9755 31.0167 25.5922 30.25 24.8255L27.15 21.6755L21.65 27.1755L24.8 30.3255C25.5667 31.0922 25.95 32.0339 25.95 33.1505C25.95 34.2672 25.5667 35.2089 24.8 35.9755L21.95 38.8255Z" fill="white"/>
</svg>
