<svg width="48" height="48" viewBox="0 0 48 48" fill="none" xmlns="http://www.w3.org/2000/svg">
<path d="M44.7559 17.7415L41.3917 14.3794L43.194 12.5183L35.5044 4.83359L33.6421 6.6347L30.2178 3.2126L32.02 1.35147C32.9412 0.430902 34.0826 -0.0193736 35.4443 0.000638689C36.806 0.0206509 37.9474 0.490939 38.8686 1.4115L46.6183 9.15624C47.5394 10.0768 48 11.2075 48 12.5483C48 13.8891 47.5394 15.0198 46.6183 15.9404L44.7559 17.7415ZM15.9199 46.6192C14.9987 47.5397 13.8673 48 12.5257 48C11.184 48 10.0526 47.5397 9.13141 46.6192L1.38173 38.8744C0.460576 37.9539 0 36.8232 0 35.4823C0 34.1415 0.460576 33.0108 1.38173 32.0903L3.18398 30.2892L6.60826 33.7113L4.74593 35.5124L12.4956 43.2571L14.2979 41.396L17.7222 44.8181L15.9199 46.6192ZM39.7697 26.4468L43.194 23.0247L24.9912 4.83359L21.567 8.25569L39.7697 26.4468ZM22.9487 43.2571L26.373 39.775L8.23029 21.6439L4.74593 25.066L22.9487 43.2571ZM22.5882 29.2085L29.1965 22.6645L25.3517 18.8222L18.8035 25.4262L22.5882 29.2085ZM26.373 46.6192C25.4518 47.5397 24.3104 48 22.9487 48C21.587 48 20.4456 47.5397 19.5244 46.6192L1.38173 28.4881C0.460576 27.5675 0 26.4268 0 25.066C0 23.7051 0.460576 22.5644 1.38173 21.6439L4.80601 18.2218C5.72716 17.3012 6.85857 16.8409 8.20025 16.8409C9.54193 16.8409 10.6733 17.3012 11.5945 18.2218L15.3792 22.0041L21.9875 15.4001L18.2028 11.6778C17.2816 10.7572 16.821 9.61652 16.821 8.25569C16.821 6.89486 17.2816 5.75416 18.2028 4.83359L21.627 1.4115C22.5482 0.490939 23.6796 0.0306571 25.0213 0.0306571C26.363 0.0306571 27.4944 0.490939 28.4155 1.4115L46.6183 19.6026C47.5394 20.5232 48 21.6539 48 22.9947C48 24.3355 47.5394 25.4662 46.6183 26.3868L43.194 29.8089C42.2728 30.7294 41.1314 31.1897 39.7697 31.1897C38.408 31.1897 37.2666 30.7294 36.3454 29.8089L32.6208 26.0266L26.0125 32.6306L29.7972 36.4129C30.7184 37.3335 31.179 38.4642 31.179 39.805C31.179 41.1458 30.7184 42.2765 29.7972 43.1971L26.373 46.6192Z" fill="#F36A0E"/>
</svg>
