<svg width="44" height="32" viewBox="0 0 44 32" fill="none" xmlns="http://www.w3.org/2000/svg">
<path d="M38 10V4H34V10H28V14H34V20H38V14H44V10H38ZM16 16C20.42 16 24 12.42 24 8C24 3.58 20.42 0 16 0C11.58 0 8 3.58 8 8C8 12.42 11.58 16 16 16ZM16 4C18.2 4 20 5.8 20 8C20 10.2 18.2 12 16 12C13.8 12 12 10.2 12 8C12 5.8 13.8 4 16 4ZM28.78 21.12C25.42 19.4 21.06 18 16 18C10.94 18 6.58 19.4 3.22 21.12C1.22 22.14 0 24.2 0 26.44V32H32V26.44C32 24.2 30.78 22.14 28.78 21.12ZM28 28H4V26.44C4 25.68 4.4 25 5.04 24.68C7.42 23.46 11.26 22 16 22C20.74 22 24.58 23.46 26.96 24.68C27.6 25 28 25.68 28 26.44V28Z" fill="#F36A0E"/>
</svg>
